<?xml version="1.0" encoding="UTF-8" standalone="no"?>
<!DOCTYPE svg PUBLIC "-//W3C//DTD SVG 1.1//EN"
 "http://www.w3.org/Graphics/SVG/1.1/DTD/svg11.dtd">
<!-- Generated by graphviz version 7.0.6 (20230106.0513)
 -->
<!-- Title: my_graph Pages: 1 -->
<svg width="1008pt" height="1013pt"
 viewBox="0.00 0.00 1007.86 1013.00" xmlns="http://www.w3.org/2000/svg" xmlns:xlink="http://www.w3.org/1999/xlink">
<g id="graph0" class="graph" transform="scale(1 1) rotate(0) translate(4 1009)">
<title>my_graph</title>
<polygon fill="white" stroke="none" points="-4,4 -4,-1009 1003.86,-1009 1003.86,4 -4,4"/>
<g id="clust1" class="cluster">
<title>cluster_0</title>
<polygon fill="none" stroke="black" points="430.13,-827 430.13,-956 565.72,-956 565.72,-827 430.13,-827"/>
<text text-anchor="middle" x="497.93" y="-940.8" font-family="Times,serif" font-size="14.00">batch_0</text>
</g>
<g id="clust2" class="cluster">
<title>cluster_1</title>
<polygon fill="none" stroke="black" points="847.17,-734 847.17,-809 991.86,-809 991.86,-734 847.17,-734"/>
<text text-anchor="middle" x="919.51" y="-793.8" font-family="Times,serif" font-size="14.00">batch_1</text>
</g>
<g id="clust3" class="cluster">
<title>cluster_2</title>
<polygon fill="none" stroke="black" points="12.15,-160 12.15,-235 142.54,-235 142.54,-160 12.15,-160"/>
<text text-anchor="middle" x="77.34" y="-219.8" font-family="Times,serif" font-size="14.00">batch_2</text>
</g>
<g id="clust4" class="cluster">
<title>cluster_3</title>
<polygon fill="none" stroke="black" points="395.69,-578 395.69,-653 600.17,-653 600.17,-578 395.69,-578"/>
<text text-anchor="middle" x="497.93" y="-637.8" font-family="Times,serif" font-size="14.00">batch_3</text>
</g>
<g id="clust5" class="cluster">
<title>cluster_4</title>
<polygon fill="none" stroke="black" points="445.73,-331 445.73,-406 550.12,-406 550.12,-331 445.73,-331"/>
<text text-anchor="middle" x="497.93" y="-390.8" font-family="Times,serif" font-size="14.00">batch_4</text>
</g>
<g id="clust6" class="cluster">
<title>cluster_5</title>
<polygon fill="none" stroke="black" points="462.93,-107 462.93,-182 532.93,-182 532.93,-107 462.93,-107"/>
<text text-anchor="middle" x="497.93" y="-166.8" font-family="Times,serif" font-size="14.00">batch_5</text>
</g>
<g id="clust7" class="cluster">
<title>cluster_6</title>
<polygon fill="none" stroke="black" points="453.53,-8 453.53,-83 542.32,-83 542.32,-8 453.53,-8"/>
<text text-anchor="middle" x="497.93" y="-67.8" font-family="Times,serif" font-size="14.00">batch_6</text>
</g>
<!-- node_0 -->
<g id="node1" class="node">
<title>node_0</title>
<ellipse fill="none" stroke="black" cx="497.93" cy="-907" rx="54.69" ry="18"/>
<text text-anchor="middle" x="497.93" y="-903.3" font-family="Times,serif" font-size="14.00">light_update</text>
</g>
<!-- node_1 -->
<g id="node2" class="node">
<title>node_1</title>
<ellipse fill="none" stroke="black" cx="497.93" cy="-853" rx="59.59" ry="18"/>
<text text-anchor="middle" x="497.93" y="-849.3" font-family="Times,serif" font-size="14.00">object_update</text>
</g>
<!-- node_2 -->
<g id="node3" class="node">
<title>node_2</title>
<ellipse fill="none" stroke="black" cx="919.51" cy="-760" rx="64.19" ry="18"/>
<text text-anchor="middle" x="919.51" y="-756.3" font-family="Times,serif" font-size="14.00">camera_update</text>
</g>
<!-- node_1&#45;&gt;node_2 -->
<g id="edge25" class="edge">
<title>node_1&#45;&gt;node_2</title>
<path fill="none" stroke="tomato" d="M556.69,-849.26C625.01,-843.64 741.53,-830.24 837.17,-800 851.73,-795.4 866.95,-788.53 880.22,-781.79"/>
<polygon fill="tomato" stroke="tomato" points="881.83,-784.89 889.06,-777.15 878.58,-778.69 881.83,-784.89"/>
<text text-anchor="middle" x="723.67" y="-846.8" font-family="Times,serif" font-size="14.00">renderling::camera::CamerasNeedSorting</text>
</g>
<!-- node_3 -->
<g id="node4" class="node">
<title>node_3</title>
<ellipse fill="none" stroke="black" cx="77.34" cy="-186" rx="57.39" ry="18"/>
<text text-anchor="middle" x="77.34" y="-182.3" font-family="Times,serif" font-size="14.00">create_frame</text>
</g>
<!-- node_4 -->
<g id="node5" class="node">
<title>node_4</title>
<ellipse fill="none" stroke="black" cx="497.93" cy="-604" rx="94.48" ry="18"/>
<text text-anchor="middle" x="497.93" y="-600.3" font-family="Times,serif" font-size="14.00">clear_frame_and_depth</text>
</g>
<!-- node_3&#45;&gt;node_4 -->
<g id="edge26" class="edge">
<title>node_3&#45;&gt;node_4</title>
<path fill="none" stroke="limegreen" d="M78.15,-204.26C78.71,-255.49 88.01,-401.13 172.69,-468 209.98,-497.45 342.89,-466.34 385.69,-487 426.78,-506.84 460.6,-548.76 479.77,-576.66"/>
<polygon fill="limegreen" stroke="limegreen" points="476.63,-578.25 485.09,-584.62 482.45,-574.36 476.63,-578.25"/>
<text text-anchor="middle" x="279.19" y="-490.8" font-family="Times,serif" font-size="14.00">renderling::node::FrameTextureView</text>
</g>
<!-- node_5 -->
<g id="node6" class="node">
<title>node_5</title>
<ellipse fill="none" stroke="black" cx="497.93" cy="-357" rx="44.39" ry="18"/>
<text text-anchor="middle" x="497.93" y="-353.3" font-family="Times,serif" font-size="14.00">ui_render</text>
</g>
<!-- node_3&#45;&gt;node_5 -->
<g id="edge27" class="edge">
<title>node_3&#45;&gt;node_5</title>
<path fill="none" stroke="limegreen" d="M132.05,-180.18C208.31,-172.93 343.42,-164.06 385.69,-187 441.1,-217.08 473.37,-288.05 487.8,-328.13"/>
<polygon fill="limegreen" stroke="limegreen" points="484.41,-329.05 490.98,-337.37 491.03,-326.77 484.41,-329.05"/>
<text text-anchor="middle" x="279.19" y="-190.8" font-family="Times,serif" font-size="14.00">renderling::node::FrameTextureView</text>
</g>
<!-- node_6 -->
<g id="node7" class="node">
<title>node_6</title>
<ellipse fill="none" stroke="black" cx="497.93" cy="-133" rx="27" ry="18"/>
<text text-anchor="middle" x="497.93" y="-129.3" font-family="Times,serif" font-size="14.00">post</text>
</g>
<!-- node_3&#45;&gt;node_6 -->
<g id="edge28" class="edge">
<title>node_3&#45;&gt;node_6</title>
<path fill="none" stroke="limegreen" d="M86.87,-168.07C100.65,-141.51 130.56,-92.71 172.69,-73 215.56,-52.94 343.6,-51.34 385.69,-73 392.49,-76.5 389.78,-82.14 395.69,-87 415.27,-103.12 441.42,-114.81 462.24,-122.37"/>
<polygon fill="limegreen" stroke="limegreen" points="460.85,-125.59 471.45,-125.55 463.14,-118.98 460.85,-125.59"/>
<text text-anchor="middle" x="279.19" y="-76.8" font-family="Times,serif" font-size="14.00">renderling::state::Frame</text>
</g>
<!-- node_7 -->
<g id="node8" class="node">
<title>node_7</title>
<ellipse fill="none" stroke="black" cx="497.93" cy="-34" rx="36.29" ry="18"/>
<text text-anchor="middle" x="497.93" y="-30.3" font-family="Times,serif" font-size="14.00">present</text>
</g>
<!-- node_3&#45;&gt;node_7 -->
<g id="edge29" class="edge">
<title>node_3&#45;&gt;node_7</title>
<path fill="none" stroke="tomato" d="M83.71,-167.83C94.47,-135.13 122.08,-67.16 172.69,-39 262.72,11.1 389.73,-7.88 454.84,-22.77"/>
<polygon fill="tomato" stroke="tomato" points="453.87,-26.14 464.41,-25.04 455.49,-19.33 453.87,-26.14"/>
<text text-anchor="middle" x="279.19" y="-42.8" font-family="Times,serif" font-size="14.00">renderling::state::Frame</text>
</g>
<!-- ghost_node -->
<g id="node9" class="node">
<title>ghost_node</title>
<ellipse fill="none" stroke="black" stroke-dasharray="1,5" cx="77.34" cy="-585" rx="77.19" ry="18"/>
<text text-anchor="middle" x="77.34" y="-581.3" font-family="Times,serif" font-size="14.00">required_resources</text>
</g>
<!-- ghost_node&#45;&gt;node_0 -->
<g id="edge1" class="edge">
<title>ghost_node&#45;&gt;node_0</title>
<path fill="none" stroke="limegreen" d="M80.04,-603.45C86.85,-672.73 114.58,-915.67 172.69,-961 258.75,-1028.14 397.21,-964.81 461.73,-928.49"/>
<polygon fill="limegreen" stroke="limegreen" points="463.19,-931.69 470.11,-923.67 459.7,-925.62 463.19,-931.69"/>
<text text-anchor="middle" x="279.19" y="-993.8" font-family="Times,serif" font-size="14.00">renderling::renderer::Queue</text>
</g>
<!-- ghost_node&#45;&gt;node_0 -->
<g id="edge10" class="edge">
<title>ghost_node&#45;&gt;node_0</title>
<path fill="none" stroke="mediumblue" d="M80.58,-603.36C88.86,-667.96 120.04,-883.03 172.69,-923 213.2,-953.76 357.79,-933.18 439.54,-918.38"/>
<polygon fill="mediumblue" stroke="mediumblue" points="439.95,-921.86 449.15,-916.61 438.68,-914.98 439.95,-921.86"/>
<text text-anchor="middle" x="279.19" y="-941.8" font-family="Times,serif" font-size="14.00">renderling::light::Lights</text>
</g>
<!-- ghost_node&#45;&gt;node_0 -->
<g id="edge14" class="edge">
<title>ghost_node&#45;&gt;node_0</title>
<path fill="none" stroke="limegreen" d="M77.67,-603.32C76.8,-656.89 82.38,-813.91 172.69,-885 182.7,-892.89 340.25,-900.6 431.98,-904.46"/>
<polygon fill="limegreen" stroke="limegreen" points="431.72,-907.95 441.86,-904.87 432.01,-900.96 431.72,-907.95"/>
<text text-anchor="middle" x="279.19" y="-905.8" font-family="Times,serif" font-size="14.00">renderling::renderer::Device</text>
</g>
<!-- ghost_node&#45;&gt;node_1 -->
<g id="edge2" class="edge">
<title>ghost_node&#45;&gt;node_1</title>
<path fill="none" stroke="limegreen" d="M78.44,-603.36C79.81,-652.73 91.15,-788.56 172.69,-847 212.46,-875.5 347.71,-868.07 430.44,-860.35"/>
<polygon fill="limegreen" stroke="limegreen" points="430.63,-863.85 440.25,-859.41 429.96,-856.88 430.63,-863.85"/>
<text text-anchor="middle" x="279.19" y="-870.8" font-family="Times,serif" font-size="14.00">renderling::renderer::Queue</text>
</g>
<!-- ghost_node&#45;&gt;node_1 -->
<g id="edge15" class="edge">
<title>ghost_node&#45;&gt;node_1</title>
<path fill="none" stroke="limegreen" d="M79.9,-603.33C84.72,-647.24 103.5,-758.49 172.69,-809 211.07,-837.02 338.73,-820.66 385.69,-828 403.57,-830.8 422.88,-834.78 440.31,-838.76"/>
<polygon fill="limegreen" stroke="limegreen" points="439.45,-842.15 449.98,-841.01 441.04,-835.33 439.45,-842.15"/>
<text text-anchor="middle" x="279.19" y="-831.8" font-family="Times,serif" font-size="14.00">renderling::renderer::Device</text>
</g>
<!-- ghost_node&#45;&gt;node_1 -->
<g id="edge22" class="edge">
<title>ghost_node&#45;&gt;node_1</title>
<path fill="none" stroke="mediumblue" d="M81.59,-603.42C89.47,-641.97 113.47,-730.91 172.69,-771 251.39,-824.29 303.97,-741.47 385.69,-790 392.58,-794.09 389.62,-799.76 395.69,-805 410.31,-817.64 428.84,-827.7 446.03,-835.28"/>
<polygon fill="mediumblue" stroke="mediumblue" points="444.55,-838.45 455.12,-839.09 447.26,-832 444.55,-838.45"/>
<text text-anchor="middle" x="279.19" y="-793.8" font-family="Times,serif" font-size="14.00">renderling::object::Objects</text>
</g>
<!-- ghost_node&#45;&gt;node_2 -->
<g id="edge11" class="edge">
<title>ghost_node&#45;&gt;node_2</title>
<path fill="none" stroke="mediumblue" d="M82.84,-603.36C92.51,-638.32 118.86,-713.86 172.69,-746 229.23,-779.76 666.79,-768.71 844.18,-762.75"/>
<polygon fill="mediumblue" stroke="mediumblue" points="844.09,-766.25 853.97,-762.41 843.85,-759.25 844.09,-766.25"/>
<text text-anchor="middle" x="497.93" y="-772.8" font-family="Times,serif" font-size="14.00">renderling::camera::Cameras</text>
</g>
<!-- ghost_node&#45;&gt;node_2 -->
<g id="edge16" class="edge">
<title>ghost_node&#45;&gt;node_2</title>
<path fill="none" stroke="limegreen" d="M84.79,-603.12C96.73,-633.69 125.49,-694.71 172.69,-721 187.23,-729.1 658.79,-749.32 844.45,-756.99"/>
<polygon fill="limegreen" stroke="limegreen" points="844.09,-760.47 854.22,-757.39 844.37,-753.48 844.09,-760.47"/>
<text text-anchor="middle" x="497.93" y="-749.8" font-family="Times,serif" font-size="14.00">renderling::renderer::Device</text>
</g>
<!-- ghost_node&#45;&gt;node_2 -->
<g id="edge23" class="edge">
<title>ghost_node&#45;&gt;node_2</title>
<path fill="none" stroke="limegreen" d="M87.55,-603.22C101.8,-629.18 131.85,-675.88 172.69,-696 215.35,-717.01 552.76,-713.24 600.17,-717 705.8,-725.38 732.52,-726.36 837.17,-743 843.65,-744.03 850.4,-745.23 857.11,-746.51"/>
<polygon fill="limegreen" stroke="limegreen" points="856.35,-749.93 866.83,-748.42 857.7,-743.06 856.35,-749.93"/>
<text text-anchor="middle" x="497.93" y="-720.8" font-family="Times,serif" font-size="14.00">renderling::object::Objects</text>
</g>
<!-- ghost_node&#45;&gt;node_3 -->
<g id="edge13" class="edge">
<title>ghost_node&#45;&gt;node_3</title>
<path fill="none" stroke="limegreen" d="M77.34,-566.75C77.34,-503.62 77.34,-294.1 77.34,-215.84"/>
<polygon fill="limegreen" stroke="limegreen" points="80.84,-215.96 77.34,-205.96 73.84,-215.96 80.84,-215.96"/>
<text text-anchor="middle" x="66.84" y="-381.8" font-family="Times,serif" font-size="14.00">renderling::state::RenderTarget</text>
</g>
<!-- ghost_node&#45;&gt;node_4 -->
<g id="edge3" class="edge">
<title>ghost_node&#45;&gt;node_4</title>
<path fill="none" stroke="limegreen" d="M153.66,-588.42C220.83,-591.47 319.75,-595.96 394.17,-599.34"/>
<polygon fill="limegreen" stroke="limegreen" points="393.77,-602.82 403.92,-599.78 394.08,-595.83 393.77,-602.82"/>
<text text-anchor="middle" x="279.19" y="-602.8" font-family="Times,serif" font-size="14.00">renderling::renderer::Queue</text>
</g>
<!-- ghost_node&#45;&gt;node_4 -->
<g id="edge8" class="edge">
<title>ghost_node&#45;&gt;node_4</title>
<path fill="none" stroke="limegreen" d="M140.87,-574.4C151.46,-572.99 162.37,-571.76 172.69,-571 267.1,-564.03 292,-557.4 385.69,-571 404.42,-573.72 424.4,-578.89 442.18,-584.35"/>
<polygon fill="limegreen" stroke="limegreen" points="440.9,-587.61 451.49,-587.3 443.01,-580.94 440.9,-587.61"/>
<text text-anchor="middle" x="279.19" y="-574.8" font-family="Times,serif" font-size="14.00">renderling::renderer::DepthTexture</text>
</g>
<!-- ghost_node&#45;&gt;node_4 -->
<g id="edge17" class="edge">
<title>ghost_node&#45;&gt;node_4</title>
<path fill="none" stroke="limegreen" d="M94.32,-602.91C111.59,-620.8 140.94,-647.15 172.69,-658 262.27,-688.61 293.43,-679.21 385.69,-658 411.94,-651.97 439.18,-638.87 460.13,-627.09"/>
<polygon fill="limegreen" stroke="limegreen" points="461.67,-630.25 468.57,-622.21 458.16,-624.19 461.67,-630.25"/>
<text text-anchor="middle" x="279.19" y="-680.8" font-family="Times,serif" font-size="14.00">renderling::renderer::Device</text>
</g>
<!-- ghost_node&#45;&gt;node_4 -->
<g id="edge21" class="edge">
<title>ghost_node&#45;&gt;node_4</title>
<path fill="none" stroke="limegreen" d="M115.22,-601.14C132.34,-607.78 153.18,-614.69 172.69,-618 253.82,-631.78 347.91,-625.28 413.77,-617.15"/>
<polygon fill="limegreen" stroke="limegreen" points="413.93,-620.66 423.41,-615.92 413.04,-613.72 413.93,-620.66"/>
<text text-anchor="middle" x="279.19" y="-629.8" font-family="Times,serif" font-size="14.00">renderling::renderer::BackgroundColor</text>
</g>
<!-- ghost_node&#45;&gt;node_5 -->
<g id="edge4" class="edge">
<title>ghost_node&#45;&gt;node_5</title>
<path fill="none" stroke="limegreen" d="M78.85,-566.62C81.27,-519.14 95.04,-392.38 172.69,-339 215.75,-309.39 366.47,-332.11 446.35,-346.89"/>
<polygon fill="limegreen" stroke="limegreen" points="445.64,-350.32 456.12,-348.72 446.93,-343.44 445.64,-350.32"/>
<text text-anchor="middle" x="279.19" y="-342.8" font-family="Times,serif" font-size="14.00">renderling::renderer::Queue</text>
</g>
<!-- ghost_node&#45;&gt;node_5 -->
<g id="edge7" class="edge">
<title>ghost_node&#45;&gt;node_5</title>
<path fill="none" stroke="limegreen" d="M77.94,-566.54C77.92,-514.83 85.86,-368.3 172.69,-306 261.28,-242.44 398.58,-302.39 462.28,-336.72"/>
<polygon fill="limegreen" stroke="limegreen" points="460.44,-339.7 470.89,-341.46 463.82,-333.57 460.44,-339.7"/>
<text text-anchor="middle" x="279.19" y="-309.8" font-family="Times,serif" font-size="14.00">renderling::ui::UiPipeline</text>
</g>
<!-- ghost_node&#45;&gt;node_5 -->
<g id="edge9" class="edge">
<title>ghost_node&#45;&gt;node_5</title>
<path fill="none" stroke="limegreen" d="M80.76,-566.9C89.52,-504.23 121.83,-298.19 172.69,-260 210.53,-231.58 341.36,-243.39 385.69,-260 423.18,-274.05 456.35,-307.09 476.5,-330.7"/>
<polygon fill="limegreen" stroke="limegreen" points="473.78,-332.9 482.85,-338.37 479.17,-328.44 473.78,-332.9"/>
<text text-anchor="middle" x="279.19" y="-263.8" font-family="Times,serif" font-size="14.00">renderling::renderer::DepthTexture</text>
</g>
<!-- ghost_node&#45;&gt;node_5 -->
<g id="edge12" class="edge">
<title>ghost_node&#45;&gt;node_5</title>
<path fill="none" stroke="limegreen" d="M112.18,-568.51C129.86,-560.45 152.07,-551.18 172.69,-545 264.88,-517.38 303.91,-556.74 385.69,-506 432.84,-476.75 466.83,-419.6 484.07,-385.21"/>
<polygon fill="limegreen" stroke="limegreen" points="487.19,-386.79 488.41,-376.27 480.89,-383.73 487.19,-386.79"/>
<text text-anchor="middle" x="279.19" y="-548.8" font-family="Times,serif" font-size="14.00">renderling::camera::Cameras</text>
</g>
<!-- ghost_node&#45;&gt;node_5 -->
<g id="edge18" class="edge">
<title>ghost_node&#45;&gt;node_5</title>
<path fill="none" stroke="limegreen" d="M85.5,-566.72C98.15,-537.14 127.45,-479.44 172.69,-453 254.89,-404.95 296.05,-462.13 385.69,-430 416.75,-418.87 447.79,-397.43 469.15,-380.65"/>
<polygon fill="limegreen" stroke="limegreen" points="471.19,-383.5 476.79,-374.5 466.81,-378.04 471.19,-383.5"/>
<text text-anchor="middle" x="279.19" y="-456.8" font-family="Times,serif" font-size="14.00">renderling::renderer::Device</text>
</g>
<!-- ghost_node&#45;&gt;node_5 -->
<g id="edge20" class="edge">
<title>ghost_node&#45;&gt;node_5</title>
<path fill="none" stroke="limegreen" d="M82.25,-566.62C91.13,-529.92 116.55,-447.9 172.69,-411 212.4,-384.9 339.08,-401.3 385.69,-392 408.64,-387.42 433.54,-379.84 453.96,-372.9"/>
<polygon fill="limegreen" stroke="limegreen" points="455.07,-376.22 463.37,-369.64 452.77,-369.61 455.07,-376.22"/>
<text text-anchor="middle" x="279.19" y="-414.8" font-family="Times,serif" font-size="14.00">renderling::node::UiRenderCamera</text>
</g>
<!-- ghost_node&#45;&gt;node_5 -->
<g id="edge24" class="edge">
<title>ghost_node&#45;&gt;node_5</title>
<path fill="none" stroke="limegreen" d="M80.2,-566.82C85.63,-524.4 105.56,-419 172.69,-373 194.24,-358.23 354.76,-356.46 441.57,-356.61"/>
<polygon fill="limegreen" stroke="limegreen" points="441.53,-360.11 451.54,-356.64 441.55,-353.11 441.53,-360.11"/>
<text text-anchor="middle" x="279.19" y="-376.8" font-family="Times,serif" font-size="14.00">renderling::object::Objects</text>
</g>
<!-- ghost_node&#45;&gt;node_6 -->
<g id="edge5" class="edge">
<title>ghost_node&#45;&gt;node_6</title>
<path fill="none" stroke="limegreen" d="M80.42,-566.54C88.36,-499.43 119.1,-269.97 172.69,-224 208.8,-193.02 340.65,-217.38 385.69,-202 417.39,-191.17 449.47,-169.93 470.98,-153.87"/>
<polygon fill="limegreen" stroke="limegreen" points="473.06,-156.68 478.88,-147.82 468.81,-151.12 473.06,-156.68"/>
<text text-anchor="middle" x="279.19" y="-227.8" font-family="Times,serif" font-size="14.00">renderling::renderer::Queue</text>
</g>
<!-- ghost_node&#45;&gt;node_6 -->
<g id="edge6" class="edge">
<title>ghost_node&#45;&gt;node_6</title>
<path fill="none" stroke="limegreen" d="M82.45,-566.63C93.99,-515.03 127.58,-364.36 154.69,-239 162.85,-201.26 143.49,-179.27 172.69,-154 193.95,-135.59 378.88,-133.12 459.56,-132.93"/>
<polygon fill="limegreen" stroke="limegreen" points="459.16,-136.43 469.16,-132.92 459.15,-129.43 459.16,-136.43"/>
<text text-anchor="middle" x="279.19" y="-157.8" font-family="Times,serif" font-size="14.00">renderling::renderer::ScreenSize</text>
</g>
<!-- ghost_node&#45;&gt;node_6 -->
<g id="edge19" class="edge">
<title>ghost_node&#45;&gt;node_6</title>
<path fill="none" stroke="limegreen" d="M82.87,-566.72C95.49,-515.33 131.64,-365.17 154.69,-239 159.69,-211.61 151.63,-133.22 172.69,-115 214.87,-78.49 385.62,-109.19 460.94,-125"/>
<polygon fill="limegreen" stroke="limegreen" points="460.18,-128.42 470.69,-127.08 461.64,-121.57 460.18,-128.42"/>
<text text-anchor="middle" x="279.19" y="-118.8" font-family="Times,serif" font-size="14.00">renderling::renderer::Device</text>
</g>
</g>
</svg>
